<?xml version="1.0" encoding="utf-8"?><svg xmlns="http://www.w3.org/2000/svg" xmlns:xlink="http://www.w3.org/1999/xlink"><symbol viewBox="0 0 23 23" fill="none" id="icons--FacebookLogo" xmlns="http://www.w3.org/2000/svg"><path d="M11.5 20.125a8.625 8.625 0 100-17.25 8.625 8.625 0 000 17.25z" stroke="#000" stroke-linecap="round" stroke-linejoin="round"/><path d="M15.094 7.906h-1.438a2.156 2.156 0 00-2.156 2.157v10.062M8.625 12.938h5.75" stroke="#000" stroke-linecap="round" stroke-linejoin="round"/></symbol><symbol viewBox="0 0 23 23" fill="none" id="icons--InstagramLogo" xmlns="http://www.w3.org/2000/svg"><path d="M11.5 15.094a3.594 3.594 0 100-7.188 3.594 3.594 0 000 7.188z" stroke="#000" stroke-linecap="round" stroke-linejoin="round"/><path d="M15.453 3.234H7.547a4.312 4.312 0 00-4.313 4.313v7.906a4.312 4.312 0 004.313 4.313h7.906a4.312 4.312 0 004.313-4.313V7.547a4.312 4.312 0 00-4.313-4.313z" stroke="#000" stroke-linecap="round" stroke-linejoin="round"/><path d="M16.172 7.547a.719.719 0 100-1.438.719.719 0 000 1.438z" fill="#000"/></symbol><symbol viewBox="0 0 24 24" fill="none" id="icons--MagnifyingGlass" xmlns="http://www.w3.org/2000/svg"><path d="M10.875 18.75a7.875 7.875 0 100-15.75 7.875 7.875 0 000 15.75zM16.443 16.444L20.999 21" stroke="#6E9BB8" stroke-linecap="round" stroke-linejoin="round"/></symbol><symbol fill="none" viewBox="0 0 14 13" id="icons--Map-trifold" xmlns="http://www.w3.org/2000/svg"><path d="M5 1L1 2v9l4-1m0-9l4 2M5 1v9m4-7l4-1v9l-4 1m0-9v9m0 0l-4-2" stroke="#6e9bb8" stroke-linejoin="round"/></symbol><symbol viewBox="0 0 16 16" id="icons--Phone" xmlns="http://www.w3.org/2000/svg"><path d="M5.78 7.8a5.272 5.272 0 002.44 2.43.495.495 0 00.49-.037l1.565-1.043a.5.5 0 01.474-.043l2.927 1.254a.497.497 0 01.3.519A3 3 0 0111 13.5 8.5 8.5 0 012.5 5a3 3 0 012.62-2.976.498.498 0 01.519.3l1.255 2.93a.5.5 0 01-.04.47l-1.04 1.589a.495.495 0 00-.034.488z"/></symbol><symbol viewBox="0 0 23 23" fill="none" id="icons--TelegramLogo" xmlns="http://www.w3.org/2000/svg"><path d="M7.906 12.117l8.079 7.11a.72.72 0 001.175-.38l3.38-14.746a.72.72 0 00-.964-.83L2.995 9.787a.719.719 0 00.122 1.373l4.79.958zM7.906 12.117l12.23-8.831" stroke="#000" stroke-linecap="round" stroke-linejoin="round"/><path d="M11.94 15.668l-2.807 2.808a.719.719 0 01-1.227-.509v-5.85" stroke="#000" stroke-linecap="round" stroke-linejoin="round"/></symbol><symbol viewBox="0 0 23 23" fill="none" id="icons--WhatsappLogo" xmlns="http://www.w3.org/2000/svg"><path d="M4.081 15.902a8.621 8.621 0 113.017 3.017h0l-2.979.85a.72.72 0 01-.889-.888l.852-2.979h0z" stroke="#000" stroke-linecap="round" stroke-linejoin="round"/><path d="M13.666 16.531A7.188 7.188 0 016.47 9.334a2.514 2.514 0 012.515-2.506v0a.62.62 0 01.538.312l1.05 1.838a.719.719 0 01-.007.727L9.72 11.11a4.329 4.329 0 002.168 2.168v0l1.406-.844a.72.72 0 01.727-.007l1.838 1.05a.62.62 0 01.312.538v0a2.523 2.523 0 01-2.506 2.515v0z" stroke="#000" stroke-linecap="round" stroke-linejoin="round"/></symbol><symbol viewBox="0 0 23 23" fill="none" id="icons--YoutubeLogo" xmlns="http://www.w3.org/2000/svg"><path d="M14.375 11.5l-4.313-2.875v5.75l4.313-2.875z" stroke="#000" stroke-linecap="round" stroke-linejoin="round"/><path d="M2.156 11.5c0 2.673.276 4.242.486 5.048a1.43 1.43 0 00.866.979C6.516 18.683 11.5 18.65 11.5 18.65s4.984.032 7.992-1.124a1.428 1.428 0 00.866-.979c.21-.806.486-2.375.486-5.048s-.276-4.242-.486-5.048a1.43 1.43 0 00-.866-.979C16.484 4.317 11.5 4.35 11.5 4.35s-4.984-.032-7.992 1.124a1.43 1.43 0 00-.866.979c-.21.806-.486 2.375-.486 5.048z" stroke="#000" stroke-linecap="round" stroke-linejoin="round"/></symbol><symbol viewBox="0 0 14 14" fill="none" id="icons--arrow-nav" xmlns="http://www.w3.org/2000/svg"><path d="M1.337 1.973L5 12.554a.5.5 0 00.95-.016l1.473-4.785a.5.5 0 01.33-.331l4.785-1.472a.5.5 0 00.017-.95L1.973 1.336a.5.5 0 00-.636.636v0z" stroke="#6E9BB8" stroke-linecap="round" stroke-linejoin="round"/></symbol></svg>